# xmcd CD database file
#
# Track frame offsets:
#	150
#	20851
#	32995
#	54186
#	67981
#	85673
#	105179
#	121672
#	138900
#
# Disc length: 2029 seconds
#
# Revision: 1
# Processed by: cddbd v1.5.2PL0 Copyright (c) Steve Scherf et al.
# Submitted via: CDex 1.51
#
DISCID=6707eb09
DTITLE=Alejandro Aznavwrian - Modes Of The Spirits
DYEAR=2013
DGENRE=Jazz
TTITLE0=Alejandro Aznavwrian - City Modes
TTITLE1=Alejandro Aznavwrian - Horizon Modes
TTITLE2=Alejandro Aznavwrian - Ligth Mode
TTITLE3=Alejandro Aznavwrian - Magic Hour
TTITLE4=Alejandro Aznavwrian - Mode Late Aftermoon
TTITLE5=Alejandro Aznavwrian - Nadir Mode
TTITLE6=Alejandro Aznavwrian - Remind Mode
TTITLE7=Alejandro Aznavwrian - Skylines Modes
TTITLE8=Alejandro Aznavwrian - Zenith Mode
EXTD=YEAR: 2013
EXTT0=
EXTT1=
EXTT2=
EXTT3=
EXTT4=
EXTT5=
EXTT6=
EXTT7=
EXTT8=
PLAYORDER=
